<svg width="48" height="20" viewBox="0 0 48 20" fill="none" xmlns="http://www.w3.org/2000/svg">
<path d="M0.143066 0H11.4342C13.3161 0 14.6782 0.430139 15.5205 1.29042C16.3808 2.13277 16.8109 3.49488 16.8109 5.37673V7.79626C16.8109 9.28383 16.56 10.4398 16.0582 11.2643C15.5743 12.0887 14.7947 12.6353 13.7193 12.9042L17.0798 18.8186H11.8375L8.74584 13.173H4.98213V18.8186H0.143066V0ZM11.9719 5.37673C11.9719 4.30139 11.4342 3.76371 10.3589 3.76371H4.98213V9.40928H10.3589C11.4342 9.40928 11.9719 8.87161 11.9719 7.79626V5.37673Z" fill="url(#paint0_linear_17_1190)"/>
<path d="M29.1701 18.8186C27.4316 18.9978 25.729 19.0874 24.0622 19.0874C22.8435 19.0874 21.8667 18.72 21.1319 17.9852C20.397 17.2504 20.0296 16.2736 20.0296 15.0549V8.19952H18.4166V4.57022H20.0296L20.5673 1.34418H24.7343V4.57022H28.0947V8.19952H24.7343V14.3828C24.7343 14.6516 24.8239 14.8756 25.0031 15.0549C25.1823 15.2341 25.4064 15.3237 25.6752 15.3237H29.1701V18.8186Z" fill="url(#paint1_linear_17_1190)"/>
<path d="M31.3323 0H42.6235C44.5053 0 45.8674 0.430139 46.7098 1.29042C47.5701 2.13277 48.0002 3.49488 48.0002 5.37673V8.0651C48.0002 9.94696 47.5701 11.318 46.7098 12.1783C45.8674 13.0207 44.5053 13.4418 42.6235 13.4418H36.1714V18.8186H31.3323V0ZM43.1611 5.37673C43.1611 4.30139 42.6235 3.76371 41.5481 3.76371H36.1714V9.67812H41.5481C42.6235 9.67812 43.1611 9.14045 43.1611 8.0651V5.37673Z" fill="url(#paint2_linear_17_1190)"/>
<defs>
<linearGradient id="paint0_linear_17_1190" x1="48.0968" y1="9.57729" x2="12.672" y2="9.57729" gradientUnits="userSpaceOnUse">
<stop stop-color="#3969FC"/>
<stop offset="1" stop-color="#2A49FF"/>
</linearGradient>
<linearGradient id="paint1_linear_17_1190" x1="48.0968" y1="9.57729" x2="12.672" y2="9.57729" gradientUnits="userSpaceOnUse">
<stop stop-color="#3969FC"/>
<stop offset="1" stop-color="#2A49FF"/>
</linearGradient>
<linearGradient id="paint2_linear_17_1190" x1="48.0968" y1="9.57729" x2="12.672" y2="9.57729" gradientUnits="userSpaceOnUse">
<stop stop-color="#3969FC"/>
<stop offset="1" stop-color="#2A49FF"/>
</linearGradient>
</defs>
</svg>
